<svg xmlns="http://www.w3.org/2000/svg" version="1.1" xmlns:xlink="http://www.w3.org/1999/xlink" xmlns:svgjs="http://svgjs.com/svgjs" width="1000" height="500" preserveAspectRatio="none" viewBox="0 0 1000 500"><g mask="url(&quot;#SvgjsMask1051&quot;)" fill="none"><rect width="1000" height="500" x="0" y="0" fill="#1e3266"></rect><path d="M1000.0000000000001 500L0 500 L0 207.58Q74.36 198.61, 83.33333333333334 272.97Q132.34 238.64, 166.66666666666669 287.65Q173.21 244.19, 216.66666666666669 250.73Q227.42 211.49, 266.6666666666667 222.24Q298.17 203.75, 316.6666666666667 235.25Q377.36 212.61, 400 273.3Q432.52 255.82, 450 288.34Q456.86 245.19, 500 252.05Q495.74 197.79, 550 193.53Q599.05 159.24, 633.3333333333334 208.29Q685.28 210.24, 683.3333333333334 262.18Q718.63 247.48, 733.3333333333334 282.78Q753.91 220.02, 816.6666666666667 240.6Q850.17 224.11, 866.6666666666667 257.61Q870.34 211.29, 916.6666666666667 214.96Q950.86 165.82, 1000.0000000000001 200.01z" fill="#182f5d"></path><path d="M1066.6666666666667 500L0 500 L0 372.56Q-2.23 320.33, 50 318.1Q85.45 270.22, 133.33333333333334 305.67Q194.88 283.88, 216.66666666666669 345.43Q227.25 306.01, 266.6666666666667 316.6Q301.06 267.66, 350 302.06Q369.44 271.5, 400 290.95Q415.18 256.13, 450 271.3Q511.31 249.28, 533.3333333333334 310.59Q571.45 298.71, 583.3333333333334 336.83Q585.1 288.6, 633.3333333333334 290.37Q647.37 254.4, 683.3333333333334 268.44Q745.22 246.99, 766.6666666666667 308.88Q823.85 282.73, 850.0000000000001 339.91Q909.29 315.87, 933.3333333333335 375.16Q947.46 339.29, 983.3333333333335 353.42Q1005.29 292.04, 1066.6666666666667 314z" fill="#25467d"></path><path d="M1033.3333333333335 500L0 500 L0 364.17Q41.07 355.25, 50 396.32Q115.68 378.66, 133.33333333333334 444.34Q170 397.67, 216.66666666666669 434.33Q234.56 402.22, 266.6666666666667 420.11Q294.98 365.09, 350 393.4Q359.77 353.17, 400 362.94Q417.71 330.65, 450 348.36Q490.98 339.34, 500 380.32Q548.94 345.93, 583.3333333333334 394.87Q636.17 397.71, 633.3333333333334 450.55Q628.33 362.21, 716.6666666666667 357.21Q752.3 309.51, 800.0000000000001 345.15Q843.73 338.88, 850.0000000000001 382.61Q896.04 378.64, 900.0000000000001 424.68Q909.84 384.51, 950.0000000000001 394.35Q978.95 339.97, 1033.3333333333335 368.92z" fill="#356cb1"></path><path d="M1033.3333333333335 500L0 500 L0 474.09Q11.65 435.74, 50 447.38Q62.72 410.1, 100 422.81Q132.01 404.82, 150 436.84Q215.04 451.88, 200 516.92Q248.52 482.11, 283.33333333333337 530.63Q286.93 484.23, 333.33333333333337 487.83Q366.52 437.68, 416.66666666666674 470.86Q481.53 452.39, 500.0000000000001 517.25Q506.96 474.21, 550.0000000000001 481.17Q565.17 413.01, 633.3333333333335 428.18Q673.88 418.73, 683.3333333333335 459.27Q755.64 448.24, 766.6666666666669 520.54Q769.18 439.72, 850.0000000000002 442.24Q866.4 408.64, 900.0000000000002 425.04Q958.76 400.47, 983.3333333333336 459.23Q1042.01 467.91, 1033.3333333333335 526.58z" fill="white"></path></g><defs><mask id="SvgjsMask1051"><rect width="1000" height="500" fill="#ffffff"></rect></mask></defs></svg>