<svg xmlns="http://www.w3.org/2000/svg" version="1.1" xmlns:xlink="http://www.w3.org/1999/xlink" xmlns:svgjs="http://svgjs.com/svgjs" width="1040" height="560" preserveAspectRatio="none" viewBox="0 0 1040 560"><g mask="url(&quot;#SvgjsMask1018&quot;)" fill="none"><rect width="1040" height="560" x="0" y="0" fill="#0e2a47"></rect><path d="M90.87 96.91L155.83 134.41L155.83 209.41L90.87 246.91L25.92 209.41L25.92 134.41zM25.92 209.41L90.87 246.91L90.87 321.91L25.92 359.41L-39.03 321.91L-39.03 246.91zM415.64 434.41L480.6 471.91L480.6 546.91L415.64 584.41L350.69 546.91L350.69 471.91zM480.6 546.91L545.55 584.41L545.55 659.41L480.6 696.91L415.64 659.41L415.64 584.41zM675.46 209.41L740.41 246.91L740.41 321.91L675.46 359.41L610.5 321.91L610.5 246.91zM740.41 321.91L805.37 359.41L805.37 434.41L740.41 471.91L675.46 434.41L675.46 359.41zM675.46 434.41L740.41 471.91L740.41 546.91L675.46 584.41L610.5 546.91L610.5 471.91zM805.36 209.41L870.32 246.91L870.32 321.91L805.36 359.41L740.41 321.91L740.41 246.91zM805.36 434.41L870.32 471.91L870.32 546.91L805.36 584.41L740.41 546.91L740.41 471.91zM935.27 -15.59L1000.23 21.91L1000.23 96.91L935.27 134.41L870.32 96.91L870.32 21.91zM1000.23 321.91L1065.18 359.41L1065.18 434.41L1000.23 471.91L935.27 434.41L935.27 359.41zM1065.18 434.41L1130.13 471.91L1130.13 546.91L1065.18 584.41L1000.23 546.91L1000.23 471.91z" stroke="#03305d" stroke-width="2"></path><path d="M83.37 96.91 a7.5 7.5 0 1 0 15 0 a7.5 7.5 0 1 0 -15 0zM148.33 134.41 a7.5 7.5 0 1 0 15 0 a7.5 7.5 0 1 0 -15 0zM148.33 209.41 a7.5 7.5 0 1 0 15 0 a7.5 7.5 0 1 0 -15 0zM83.37 246.91 a7.5 7.5 0 1 0 15 0 a7.5 7.5 0 1 0 -15 0zM18.42 209.41 a7.5 7.5 0 1 0 15 0 a7.5 7.5 0 1 0 -15 0zM18.42 134.41 a7.5 7.5 0 1 0 15 0 a7.5 7.5 0 1 0 -15 0zM83.37 321.91 a7.5 7.5 0 1 0 15 0 a7.5 7.5 0 1 0 -15 0zM18.42 359.41 a7.5 7.5 0 1 0 15 0 a7.5 7.5 0 1 0 -15 0zM-46.53 321.91 a7.5 7.5 0 1 0 15 0 a7.5 7.5 0 1 0 -15 0zM-46.53 246.91 a7.5 7.5 0 1 0 15 0 a7.5 7.5 0 1 0 -15 0zM408.14 434.41 a7.5 7.5 0 1 0 15 0 a7.5 7.5 0 1 0 -15 0zM473.1 471.91 a7.5 7.5 0 1 0 15 0 a7.5 7.5 0 1 0 -15 0zM473.1 546.91 a7.5 7.5 0 1 0 15 0 a7.5 7.5 0 1 0 -15 0zM408.14 584.41 a7.5 7.5 0 1 0 15 0 a7.5 7.5 0 1 0 -15 0zM343.19 546.91 a7.5 7.5 0 1 0 15 0 a7.5 7.5 0 1 0 -15 0zM343.19 471.91 a7.5 7.5 0 1 0 15 0 a7.5 7.5 0 1 0 -15 0zM538.05 584.41 a7.5 7.5 0 1 0 15 0 a7.5 7.5 0 1 0 -15 0zM538.05 659.41 a7.5 7.5 0 1 0 15 0 a7.5 7.5 0 1 0 -15 0zM473.1 696.91 a7.5 7.5 0 1 0 15 0 a7.5 7.5 0 1 0 -15 0zM408.14 659.41 a7.5 7.5 0 1 0 15 0 a7.5 7.5 0 1 0 -15 0zM667.96 209.41 a7.5 7.5 0 1 0 15 0 a7.5 7.5 0 1 0 -15 0zM732.91 246.91 a7.5 7.5 0 1 0 15 0 a7.5 7.5 0 1 0 -15 0zM732.91 321.91 a7.5 7.5 0 1 0 15 0 a7.5 7.5 0 1 0 -15 0zM667.96 359.41 a7.5 7.5 0 1 0 15 0 a7.5 7.5 0 1 0 -15 0zM603 321.91 a7.5 7.5 0 1 0 15 0 a7.5 7.5 0 1 0 -15 0zM603 246.91 a7.5 7.5 0 1 0 15 0 a7.5 7.5 0 1 0 -15 0zM797.87 359.41 a7.5 7.5 0 1 0 15 0 a7.5 7.5 0 1 0 -15 0zM797.87 434.41 a7.5 7.5 0 1 0 15 0 a7.5 7.5 0 1 0 -15 0zM732.91 471.91 a7.5 7.5 0 1 0 15 0 a7.5 7.5 0 1 0 -15 0zM667.96 434.41 a7.5 7.5 0 1 0 15 0 a7.5 7.5 0 1 0 -15 0zM732.91 546.91 a7.5 7.5 0 1 0 15 0 a7.5 7.5 0 1 0 -15 0zM667.96 584.41 a7.5 7.5 0 1 0 15 0 a7.5 7.5 0 1 0 -15 0zM603 546.91 a7.5 7.5 0 1 0 15 0 a7.5 7.5 0 1 0 -15 0zM603 471.91 a7.5 7.5 0 1 0 15 0 a7.5 7.5 0 1 0 -15 0zM797.86 209.41 a7.5 7.5 0 1 0 15 0 a7.5 7.5 0 1 0 -15 0zM862.82 246.91 a7.5 7.5 0 1 0 15 0 a7.5 7.5 0 1 0 -15 0zM862.82 321.91 a7.5 7.5 0 1 0 15 0 a7.5 7.5 0 1 0 -15 0zM797.86 359.41 a7.5 7.5 0 1 0 15 0 a7.5 7.5 0 1 0 -15 0zM797.86 434.41 a7.5 7.5 0 1 0 15 0 a7.5 7.5 0 1 0 -15 0zM862.82 471.91 a7.5 7.5 0 1 0 15 0 a7.5 7.5 0 1 0 -15 0zM862.82 546.91 a7.5 7.5 0 1 0 15 0 a7.5 7.5 0 1 0 -15 0zM797.86 584.41 a7.5 7.5 0 1 0 15 0 a7.5 7.5 0 1 0 -15 0zM927.77 -15.59 a7.5 7.5 0 1 0 15 0 a7.5 7.5 0 1 0 -15 0zM992.73 21.91 a7.5 7.5 0 1 0 15 0 a7.5 7.5 0 1 0 -15 0zM992.73 96.91 a7.5 7.5 0 1 0 15 0 a7.5 7.5 0 1 0 -15 0zM927.77 134.41 a7.5 7.5 0 1 0 15 0 a7.5 7.5 0 1 0 -15 0zM862.82 96.91 a7.5 7.5 0 1 0 15 0 a7.5 7.5 0 1 0 -15 0zM862.82 21.91 a7.5 7.5 0 1 0 15 0 a7.5 7.5 0 1 0 -15 0zM992.73 321.91 a7.5 7.5 0 1 0 15 0 a7.5 7.5 0 1 0 -15 0zM1057.68 359.41 a7.5 7.5 0 1 0 15 0 a7.5 7.5 0 1 0 -15 0zM1057.68 434.41 a7.5 7.5 0 1 0 15 0 a7.5 7.5 0 1 0 -15 0zM992.73 471.91 a7.5 7.5 0 1 0 15 0 a7.5 7.5 0 1 0 -15 0zM927.77 434.41 a7.5 7.5 0 1 0 15 0 a7.5 7.5 0 1 0 -15 0zM927.77 359.41 a7.5 7.5 0 1 0 15 0 a7.5 7.5 0 1 0 -15 0zM1122.63 471.91 a7.5 7.5 0 1 0 15 0 a7.5 7.5 0 1 0 -15 0zM1122.63 546.91 a7.5 7.5 0 1 0 15 0 a7.5 7.5 0 1 0 -15 0zM1057.68 584.41 a7.5 7.5 0 1 0 15 0 a7.5 7.5 0 1 0 -15 0zM992.73 546.91 a7.5 7.5 0 1 0 15 0 a7.5 7.5 0 1 0 -15 0z" fill="#03305d"></path><path d="M81.34 -150.65L213.85 -74.15L213.85 78.85L81.34 155.35L-51.17 78.85L-51.17 -74.15zM213.85 78.85L346.35 155.35L346.35 308.35L213.85 384.85L81.34 308.35L81.34 155.35zM81.34 308.35L213.85 384.85L213.85 537.85L81.34 614.35L-51.17 537.85L-51.17 384.85zM743.87 78.85L876.37 155.35L876.37 308.35L743.87 384.85L611.36 308.35L611.36 155.35zM611.36 308.35L743.87 384.85L743.87 537.85L611.36 614.35L478.86 537.85L478.86 384.85zM876.37 308.35L1008.88 384.85L1008.88 537.85L876.37 614.35L743.87 537.85L743.87 384.85z" stroke="rgba(6, 80, 156, 0.93)" stroke-width="2"></path></g><defs><mask id="SvgjsMask1018"><rect width="1040" height="560" fill="#ffffff"></rect></mask></defs></svg>